<?xml version="1.0" standalone="no"?><!DOCTYPE svg PUBLIC "-//W3C//DTD SVG 1.1//EN" "http://www.w3.org/Graphics/SVG/1.1/DTD/svg11.dtd"><svg t="1596936783773" class="icon" viewBox="0 0 1024 1024" version="1.1" xmlns="http://www.w3.org/2000/svg" p-id="2801" xmlns:xlink="http://www.w3.org/1999/xlink" width="200" height="200"><defs><style type="text/css">@font-face { font-family: simple-line-icons; src: url("chrome-extension://mihdfbecejheednfigjpdacgeilhlmnf/assets/fonts/Simple-Line-Icons.ttf") format("truetype"); }
</style></defs><path d="M941.592381 559.786667h-299.398095a82.407619 82.407619 0 0 0-82.407619 82.407619v299.398095A82.407619 82.407619 0 0 0 642.194286 1024h299.398095A82.407619 82.407619 0 0 0 1024 941.592381v-299.398095a82.407619 82.407619 0 0 0-82.407619-82.407619z m0 82.407619v299.398095h-299.398095v-299.398095zM381.805714 559.786667H82.407619A82.407619 82.407619 0 0 0 0 642.194286v299.398095A82.407619 82.407619 0 0 0 82.407619 1024h299.398095a82.407619 82.407619 0 0 0 82.407619-82.407619v-299.398095a82.407619 82.407619 0 0 0-82.407619-82.407619z m0 82.407619v299.398095H82.407619v-299.398095zM941.592381 0h-299.398095a82.407619 82.407619 0 0 0-82.407619 82.407619v299.398095a82.407619 82.407619 0 0 0 82.407619 82.407619h299.398095A82.407619 82.407619 0 0 0 1024 381.805714V82.407619A82.407619 82.407619 0 0 0 941.592381 0z m0 82.407619v299.398095h-299.398095V82.407619zM381.805714 0H82.407619A82.407619 82.407619 0 0 0 0 82.407619v299.398095a82.407619 82.407619 0 0 0 82.407619 82.407619h299.398095a82.407619 82.407619 0 0 0 82.407619-82.407619V82.407619A82.407619 82.407619 0 0 0 381.805714 0z m0 82.407619v299.398095H82.407619V82.407619z" fill="#5E5C5C" p-id="2802"></path></svg>