<?xml version="1.0" standalone="no"?><!DOCTYPE svg PUBLIC "-//W3C//DTD SVG 1.1//EN" "http://www.w3.org/Graphics/SVG/1.1/DTD/svg11.dtd"><svg t="1596936574944" class="icon" viewBox="0 0 1024 1024" version="1.1" xmlns="http://www.w3.org/2000/svg" p-id="4469" xmlns:xlink="http://www.w3.org/1999/xlink" width="200" height="200"><defs><style type="text/css">@font-face { font-family: simple-line-icons; src: url("chrome-extension://mihdfbecejheednfigjpdacgeilhlmnf/assets/fonts/Simple-Line-Icons.ttf") format("truetype"); }
</style></defs><path d="M731.498434 47.014323C770.627834 47.014323 802.391253 78.618025 802.391253 117.544917L802.391292 446.636078 412.872544 846.257834 423.917766 846.257808 139.972826 846.257808C100.811156 846.257808 69.098872 814.797319 69.098872 775.967195L69.09887 47.014323 45.444278 47.014323 731.498434 47.014323ZM21.789685 0 21.789685 23.507161 21.789685 775.967195C21.789685 840.780725 74.701206 893.27213 139.972826 893.27213L423.917766 893.27213 433.836776 893.27213 440.789195 886.241577 842.917277 479.594296 849.700439 472.734901 849.700439 463.117687 849.700439 117.544917C849.700439 52.66547 796.76881 0 731.498434 0L45.444278 0 21.789685 0ZM778.226699 636.417659 866.896534 725.087494 885.123581 744.573924 982.591126 646.371249 855.51125 518.557785 759.894771 618.822902 778.226699 636.417659ZM917.368982 643.052636 882.030062 678.618948 822.72717 621.427745 856.901199 584.306919 917.368982 643.052636ZM772.340216 604.73892 515.869799 861.209338 510.878077 866.20106 509.493623 873.123335 486.178128 989.700799 479.319312 1023.99488 513.613393 1017.136064 630.190857 993.82057 637.113132 992.436116 642.104854 987.444394 898.575272 730.973976 915.061815 714.487434 898.575272 698.00089 805.313302 604.73892 788.826759 588.252378 772.340216 604.73892 772.340216 604.73892 772.340216 604.73892ZM788.546674 654.715536 849.236633 714.610054 613.058672 948.095138 537.423307 964.533968 556.253105 886.783255 788.546674 654.715536ZM154.381967 392.168252 695.321032 392.168252C708.386244 392.168252 718.977688 382.413823 718.977688 370.381127 718.977688 358.348431 708.386244 348.594002 695.321032 348.594002L154.381967 348.594002C141.316756 348.594002 130.72531 358.348431 130.72531 370.381127 130.72531 382.413823 141.316756 392.168252 154.381967 392.168252L154.381967 392.168252 154.381967 392.168252ZM154.381967 239.658376 695.321032 239.658376C708.386244 239.658376 718.977688 229.903946 718.977688 217.871251 718.977688 205.838554 708.386244 196.084126 695.321032 196.084126L154.381967 196.084126C141.316756 196.084126 130.72531 205.838554 130.72531 217.871251 130.72531 229.903946 141.316756 239.658376 154.381967 239.658376L154.381967 239.658376 154.381967 239.658376Z" p-id="4470"></path></svg>