<?xml version="1.0" standalone="no"?><!DOCTYPE svg PUBLIC "-//W3C//DTD SVG 1.1//EN" "http://www.w3.org/Graphics/SVG/1.1/DTD/svg11.dtd"><svg t="1589922750466" class="icon" viewBox="0 0 1024 1024" version="1.1" xmlns="http://www.w3.org/2000/svg" p-id="33918" xmlns:xlink="http://www.w3.org/1999/xlink" width="200" height="200"><defs><style type="text/css"></style></defs><path d="M281.6 819.2c-42.3424 0-76.8-34.4576-76.8-76.8s34.4576-76.8 76.8-76.8 76.8 34.4576 76.8 76.8-34.4576 76.8-76.8 76.8zM281.6 716.8c-14.1312 0-25.6 11.4688-25.6 25.6s11.4688 25.6 25.6 25.6 25.6-11.4688 25.6-25.6-11.4688-25.6-25.6-25.6z" p-id="33919"></path><path d="M742.4 819.2c-42.3424 0-76.8-34.4576-76.8-76.8s34.4576-76.8 76.8-76.8 76.8 34.4576 76.8 76.8-34.4576 76.8-76.8 76.8zM742.4 716.8c-14.1312 0-25.6 11.4688-25.6 25.6s11.4688 25.6 25.6 25.6 25.6-11.4688 25.6-25.6-11.4688-25.6-25.6-25.6z" p-id="33920"></path><path d="M691.2 256l-358.4 0c-14.1312 0-25.6-11.4688-25.6-25.6s11.4688-25.6 25.6-25.6l358.4 0c14.1312 0 25.6 11.4688 25.6 25.6s-11.4688 25.6-25.6 25.6z" p-id="33921"></path><path d="M793.6 307.2l-563.2 0c-14.1312 0-25.6 11.4688-25.6 25.6l0 256c0 14.1312 11.4688 25.6 25.6 25.6l255.8976 0c0.0512 0 0.0512 0 0.1024 0s0.0512 0 0.1024 0l255.7952 0c0.0512 0 0.0512 0 0.1024 0s0.0512 0 0.1024 0l51.0976 0c14.1312 0 25.6-11.4688 25.6-25.6l0-256c0-14.1312-11.4688-25.6-25.6-25.6zM256 358.4l512 0 0 204.8-17.8688 0-147.1488-98.0992c-11.776-7.8336-27.648-4.6592-35.4816 7.1168s-4.6592 27.648 7.1168 35.4816l83.2512 55.5008-163.6864 0-147.1488-98.0992c-11.776-7.8336-27.648-4.6592-35.4816 7.1168s-4.6592 27.648 7.1168 35.4816l83.2512 55.5008-145.8688 0 0-204.8z" p-id="33922"></path><path d="M799.5392 91.2896c-69.7856-26.5728-166.5536-40.0896-287.5392-40.0896s-217.7024 13.4656-287.5392 40.0896c-100.9152 38.4512-122.0608 96.8704-122.0608 139.1104l0 563.2c0 61.7984 44.032 113.5104 102.4 125.44l0 53.76c0 28.2112 22.9888 51.2 51.2 51.2l51.2 0c28.2112 0 51.2-22.9888 51.2-51.2l0-51.2 307.2 0 0 51.2c0 28.2112 22.9888 51.2 51.2 51.2l51.2 0c28.2112 0 51.2-22.9888 51.2-51.2l0-53.76c58.368-11.8784 102.4-63.5904 102.4-125.44l0-563.2c0-42.24-21.1968-100.6592-122.0608-139.1104zM307.2 972.8l-51.2 0 0-51.2 51.2 0 0 51.2zM716.8 972.8l0-51.2 51.2 0 0 51.2-51.2 0zM870.4 793.6c0 42.3424-34.4576 76.8-76.8 76.8l-563.2 0c-42.3424 0-76.8-34.4576-76.8-76.8l0-563.2c0-38.0416 30.0032-68.7616 89.1392-91.2896 63.0784-24.0128 156.16-36.7104 269.2608-36.7104s206.2336 12.6976 269.2608 36.7104c59.136 22.528 89.1392 53.248 89.1392 91.2896l0 563.2z" p-id="33923"></path></svg>