<?xml version="1.0" standalone="no"?><!DOCTYPE svg PUBLIC "-//W3C//DTD SVG 1.1//EN" "http://www.w3.org/Graphics/SVG/1.1/DTD/svg11.dtd"><svg t="1596934526946" class="icon" viewBox="0 0 1420 1024" version="1.1" xmlns="http://www.w3.org/2000/svg" p-id="2322" xmlns:xlink="http://www.w3.org/1999/xlink" width="277.34375" height="200"><defs><style type="text/css">@font-face { font-family: simple-line-icons; src: url("chrome-extension://mihdfbecejheednfigjpdacgeilhlmnf/assets/fonts/Simple-Line-Icons.ttf") format("truetype"); }
</style></defs><path d="M1302.02566 0H118.049811A118.146415 118.146415 0 0 0 0 117.953208v787.900377a118.146415 118.146415 0 0 0 118.049811 118.049811h1183.975849A118.146415 118.146415 0 0 0 1420.075472 905.950189V117.953208A118.146415 118.146415 0 0 0 1302.02566 0zM1362.113208 905.950189a60.184151 60.184151 0 0 1-60.087548 60.087547H118.049811A60.087547 60.087547 0 0 1 57.962264 905.950189V309.132075h1304.150944zM1362.113208 251.169811H57.962264V117.953208a60.087547 60.087547 0 0 1 60.087547-60.087548h1183.975849a60.184151 60.184151 0 0 1 60.087548 60.087548z" p-id="2323"></path><path d="M764.135849 705.110943a28.981132 28.981132 0 0 0 37.675472-16.036226L895.22717 463.698113a28.981132 28.981132 0 1 0-53.518491-22.218868l-93.415849 225.376604a28.981132 28.981132 0 0 0 15.843019 38.255094zM927.396226 705.110943a28.981132 28.981132 0 0 0 37.675472-16.036226L1058.487547 463.698113a29.048755 29.048755 0 1 0-53.808302-21.929056l-93.415849 225.376603A28.981132 28.981132 0 0 0 927.396226 705.110943zM1090.366792 705.110943a28.981132 28.981132 0 0 0 37.86868-15.649811l93.415849-225.376604a28.981132 28.981132 0 1 0-53.518491-22.218868l-93.415849 225.376604a28.981132 28.981132 0 0 0 15.649811 37.868679z" p-id="2324"></path></svg>