<?xml version="1.0" standalone="no"?><!DOCTYPE svg PUBLIC "-//W3C//DTD SVG 1.1//EN" "http://www.w3.org/Graphics/SVG/1.1/DTD/svg11.dtd"><svg t="1596942588668" class="icon" viewBox="0 0 1024 1024" version="1.1" xmlns="http://www.w3.org/2000/svg" p-id="4531" xmlns:xlink="http://www.w3.org/1999/xlink" width="200" height="200"><defs><style type="text/css">@font-face { font-family: simple-line-icons; src: url("chrome-extension://mihdfbecejheednfigjpdacgeilhlmnf/assets/fonts/Simple-Line-Icons.ttf") format("truetype"); }
</style></defs><path d="M595.52 511.872l382.208-381.952a58.88 58.88 0 0 0 0-83.392 58.88 58.88 0 0 0-83.392 0L512 428.288 129.664 46.4a58.88 58.88 0 0 0-83.392 0 58.88 58.88 0 0 0 0 83.392l382.208 381.888-382.208 382.08a58.88 58.88 0 0 0 41.664 100.608c15.168 0 30.144-5.696 41.728-17.216L512 595.264l382.336 382.08c11.52 11.52 26.56 17.216 41.728 17.216a58.88 58.88 0 0 0 41.728-100.672l-382.272-382.08z" p-id="4532"></path></svg>