<?xml version="1.0" standalone="no"?><!DOCTYPE svg PUBLIC "-//W3C//DTD SVG 1.1//EN" "http://www.w3.org/Graphics/SVG/1.1/DTD/svg11.dtd"><svg t="1590038806587" class="icon" viewBox="0 0 1024 1024" version="1.1" xmlns="http://www.w3.org/2000/svg" p-id="4856" xmlns:xlink="http://www.w3.org/1999/xlink" width="200" height="200"><defs><style type="text/css"></style></defs><path d="M498.8 891.4H256.2c-66.6 0-120.8-54.2-120.8-120.8V239.8c0-66.6 54.2-120.8 120.8-120.8h432.4c66.6 0 120.8 54.2 120.8 120.8v275.9c0 8.7-7 15.7-15.7 15.7s-15.7-7-15.7-15.7V239.8c0-49.3-40.1-89.3-89.3-89.3H256.2c-49.3 0-89.3 40.1-89.3 89.3v530.8c0 49.3 40.1 89.3 89.3 89.3h242.7c8.7 0 15.7 7 15.7 15.7s-7.1 15.8-15.8 15.8z" fill="" p-id="4857"></path><path d="M641.3 532.7c-8.7 0-15.7-7-15.7-15.7V384.8c0-8.7 7-15.7 15.7-15.7s15.7 7 15.7 15.7V517c0.1 8.6-7 15.7-15.7 15.7zM336.2 643.9c-8.7 0-15.7-7-15.7-15.7V473.6c0-8.7 7-15.7 15.7-15.7s15.7 7 15.7 15.7v154.6c0.1 8.7-7 15.7-15.7 15.7zM488.8 602.8c-8.7 0-15.7-7-15.7-15.7V384.8c0-8.7 7-15.7 15.7-15.7s15.7 7 15.7 15.7v202.3c0 8.7-7 15.7-15.7 15.7zM709.6 905c-98.7 0-179-80.3-179-179s80.3-179 179-179 179 80.3 179 179-80.3 179-179 179z m0-326.6C628.2 578.4 562 644.6 562 726c0 81.4 66.2 147.6 147.6 147.6S857.2 807.4 857.2 726c0-81.4-66.2-147.6-147.6-147.6z" fill="" p-id="4858"></path><path d="M752.1 711.5H644.6c-8.7 0-15.7-7-15.7-15.7s7-15.7 15.7-15.7H752c8.7 0 15.7 7 15.7 15.7 0.1 8.7-6.9 15.7-15.6 15.7zM774.5 796.4H644.6c-8.7 0-15.7-7-15.7-15.7s7-15.7 15.7-15.7h129.9c8.7 0 15.7 7 15.7 15.7s-7 15.7-15.7 15.7z" fill="" p-id="4859"></path></svg>