<?xml version="1.0" standalone="no"?><!DOCTYPE svg PUBLIC "-//W3C//DTD SVG 1.1//EN" "http://www.w3.org/Graphics/SVG/1.1/DTD/svg11.dtd"><svg t="1588717157445" class="icon" viewBox="0 0 1024 1024" version="1.1" xmlns="http://www.w3.org/2000/svg" p-id="1200" xmlns:xlink="http://www.w3.org/1999/xlink" width="200" height="200"><defs><style type="text/css"></style></defs><path d="M989.866667 836.266667H34.133333c-10.24 0-17.066667-6.826667-17.066666-17.066667V204.8c0-10.24 6.826667-17.066667 17.066666-17.066667h955.733334c10.24 0 17.066667 6.826667 17.066666 17.066667v614.4c0 10.24-6.826667 17.066667-17.066666 17.066667z m-938.666667-34.133334h921.6v-580.266666h-921.6v580.266666z" fill="" p-id="1201"></path><path d="M512 682.666667c-61.44 0-116.053333-37.546667-119.466667-88.746667 0-10.24 6.826667-17.066667 17.066667-17.066667s17.066667 6.826667 17.066667 17.066667c3.413333 30.72 40.96 54.613333 85.333333 54.613333 47.786667 0 85.333333-27.306667 85.333333-61.44 0-37.546667-47.786667-51.2-81.92-58.026666l-10.24-3.413334c-75.093333-13.653333-112.64-44.373333-112.64-92.16 0-51.2 54.613333-95.573333 119.466667-95.573333 61.44 0 116.053333 37.546667 119.466667 88.746667 0 10.24-6.826667 17.066667-17.066667 17.066666s-17.066667-6.826667-17.066667-17.066666c-3.413333-27.306667-40.96-51.2-85.333333-51.2-47.786667 0-85.333333 27.306667-85.333333 61.44 0 40.96 47.786667 51.2 81.92 58.026666l10.24 3.413334c75.093333 13.653333 112.64 44.373333 112.64 92.16 0 51.2-54.613333 92.16-119.466667 92.16z" fill="" p-id="1202"></path><path d="M512 699.733333c-10.24 0-17.066667-6.826667-17.066667-17.066666V341.333333c0-10.24 6.826667-17.066667 17.066667-17.066666s17.066667 6.826667 17.066667 17.066666v341.333334c0 10.24-6.826667 17.066667-17.066667 17.066666zM887.466667 324.266667h-68.266667c-10.24 0-17.066667-6.826667-17.066667-17.066667s6.826667-17.066667 17.066667-17.066667h68.266667c10.24 0 17.066667 6.826667 17.066666 17.066667s-6.826667 17.066667-17.066666 17.066667zM204.8 733.866667H136.533333c-10.24 0-17.066667-6.826667-17.066666-17.066667s6.826667-17.066667 17.066666-17.066667h68.266667c10.24 0 17.066667 6.826667 17.066667 17.066667s-6.826667 17.066667-17.066667 17.066667z" fill="" p-id="1203"></path></svg>