<?xml version="1.0" standalone="no"?><!DOCTYPE svg PUBLIC "-//W3C//DTD SVG 1.1//EN" "http://www.w3.org/Graphics/SVG/1.1/DTD/svg11.dtd"><svg t="1596934653150" class="icon" viewBox="0 0 1024 1024" version="1.1" xmlns="http://www.w3.org/2000/svg" p-id="3538" xmlns:xlink="http://www.w3.org/1999/xlink" width="200" height="200"><defs><style type="text/css">@font-face { font-family: simple-line-icons; src: url("chrome-extension://mihdfbecejheednfigjpdacgeilhlmnf/assets/fonts/Simple-Line-Icons.ttf") format("truetype"); }
</style></defs><path d="M511.3 64.2c-247.4 0-448 200.6-448 448s200.6 448 448 448 448-200.6 448-448c0-247.5-200.5-448-448-448z m0 821.3C305.5 885.5 138 718 138 512.2s167.5-373.3 373.3-373.3 373.3 167.5 373.3 373.3-167.4 373.3-373.3 373.3z" p-id="3539"></path><path d="M306 456.2c-30.9 0-56 25.1-56 56s25.1 56 56 56 56-25.1 56-56c0-31-25.1-56-56-56zM716.7 456.2c-30.9 0-56 25.1-56 56s25.1 56 56 56 56-25.1 56-56c0-31-25.1-56-56-56zM511.3 456.2c-30.9 0-56 25.1-56 56s25.1 56 56 56 56-25.1 56-56c0-31-25-56-56-56z" p-id="3540"></path></svg>