<?xml version="1.0" encoding="iso-8859-1"?>
<!-- Generator: Adobe Illustrator 19.0.0, SVG Export Plug-In . SVG Version: 6.00 Build 0)  -->
<svg version="1.1" id="Layer_1" xmlns="http://www.w3.org/2000/svg" xmlns:xlink="http://www.w3.org/1999/xlink" x="0px" y="0px"
	 viewBox="0 0 490.667 490.667" style="enable-background:new 0 0 490.667 490.667;" xml:space="preserve">
<g>
	<g>
		<path d="M468.757,148.331l-43.328-31.509c-4.757-3.456-11.435-2.432-14.891,2.347c-3.477,4.757-2.432,11.413,2.347,14.891
			l43.328,31.509c8.213,5.973,13.12,15.829,13.12,26.389v233.707c0,17.643-13.525,32-30.144,32H51.477
			c-16.619,0-30.144-14.357-30.144-32V191.957c0-10.56,4.907-20.416,13.12-26.411l43.776-31.829
			c4.757-3.456,5.824-10.133,2.347-14.891c-3.456-4.757-10.112-5.824-14.891-2.347l-43.776,31.829
			C8.192,158.293,0,174.613,0,191.957v233.707c0,29.397,23.083,53.333,51.477,53.333h387.712c28.373,0,51.477-23.936,51.477-53.333
			V191.957C490.667,174.592,482.475,158.272,468.757,148.331z"/>
	</g>
</g>
<g>
	<g>
		<path d="M339.2,54.059l-29.333-21.333c-38.613-28.075-90.453-28.075-129.067,0l-29.675,21.589
			c-4.779,3.456-5.824,10.133-2.368,14.912c2.091,2.88,5.333,4.395,8.64,4.395c2.176,0,4.373-0.683,6.272-2.048l29.675-21.611
			c31.104-22.613,72.875-22.613,103.979,0l29.333,21.333c4.757,3.435,11.413,2.411,14.891-2.347
			C345.024,64.192,343.979,57.515,339.2,54.059z"/>
	</g>
</g>
<g>
	<g>
		<path d="M446.187,206.421c-3.264-4.928-9.877-6.229-14.784-2.965l-138.048,92.011c-29.184,19.456-66.901,19.456-96.085,0
			L59.221,203.456c-4.928-3.264-11.541-1.941-14.784,2.965c-3.264,4.907-1.941,11.52,2.965,14.784l138.048,92.011
			c18.197,12.139,39.04,18.197,59.883,18.197s41.685-6.08,59.84-18.197l138.048-92.011
			C448.128,217.941,449.451,211.328,446.187,206.421z"/>
	</g>
</g>
<g>
	<g>
		<path d="M416,52.331H74.667C68.779,52.331,64,57.109,64,62.997v160c0,5.888,4.779,10.667,10.667,10.667
			s10.667-4.779,10.667-10.667V73.664h320v149.333c0,5.888,4.779,10.667,10.667,10.667s10.667-4.779,10.667-10.667v-160
			C426.667,57.109,421.888,52.331,416,52.331z"/>
	</g>
</g>
<g>
	<g>
		<path d="M246.805,159.083c-0.043,0-2.197-0.277-2.24-0.277c-30.869-3.776-31.232-10.411-31.232-10.475
			c0-2.667,11.349-10.667,32.021-10.667c19.947,0,31.659,7.552,32.043,10.645c0.747,5.845,6.016,9.877,11.925,9.259
			c5.845-0.747,10.005-6.08,9.259-11.925c-2.155-16.981-24.533-29.312-53.227-29.312c-30.421,0-53.355,13.76-53.355,32
			c0,25.536,36.309,29.973,51.925,31.872l2.261,0.299c30.784,3.797,31.147,10.432,31.147,10.496
			c0,2.112-10.283,10.667-32.021,10.667c-19.947,0-31.659-7.552-32.043-10.645c-0.747-5.845-6.101-9.899-11.925-9.259
			c-5.845,0.747-10.005,6.08-9.259,11.925c2.155,16.981,24.533,29.312,53.227,29.312c30.421,0,53.355-13.76,53.355-32
			C298.667,165.461,262.421,161.024,246.805,159.083z"/>
	</g>
</g>
<g>
	<g>
		<path d="M245.333,94.997c-5.888,0-10.667,4.779-10.667,10.667v128c0,5.888,4.779,10.667,10.667,10.667S256,239.552,256,233.664
			v-128C256,99.776,251.221,94.997,245.333,94.997z"/>
	</g>
</g>
<g>
	<g>
		<path d="M330.667,265.664H149.333c-5.888,0-10.667,4.779-10.667,10.667s4.779,10.667,10.667,10.667h181.333
			c5.888,0,10.667-4.779,10.667-10.667S336.555,265.664,330.667,265.664z"/>
	</g>
</g>
<g>
	<g>
		<path d="M373.333,94.997h-42.667c-5.888,0-10.667,4.779-10.667,10.667s4.779,10.667,10.667,10.667h42.667
			c5.888,0,10.667-4.779,10.667-10.667S379.221,94.997,373.333,94.997z"/>
	</g>
</g>
<g>
	<g>
		<path d="M160,222.997h-42.667c-5.888,0-10.667,4.779-10.667,10.667s4.779,10.667,10.667,10.667H160
			c5.888,0,10.667-4.779,10.667-10.667S165.888,222.997,160,222.997z"/>
	</g>
</g>
<g>
</g>
<g>
</g>
<g>
</g>
<g>
</g>
<g>
</g>
<g>
</g>
<g>
</g>
<g>
</g>
<g>
</g>
<g>
</g>
<g>
</g>
<g>
</g>
<g>
</g>
<g>
</g>
<g>
</g>
</svg>
