<?xml version="1.0" encoding="iso-8859-1"?>
<!-- Generator: Adobe Illustrator 19.0.0, SVG Export Plug-In . SVG Version: 6.00 Build 0)  -->
<svg version="1.1" id="Capa_1" xmlns="http://www.w3.org/2000/svg" xmlns:xlink="http://www.w3.org/1999/xlink" x="0px" y="0px"
	 viewBox="0 0 480.001 480.001" style="enable-background:new 0 0 480.001 480.001;" xml:space="preserve">
<g>
	<g>
		<path d="M409.704,70.293C315.977-23.432,164.018-23.43,70.293,70.296s-93.724,245.686,0.003,339.411s245.686,93.724,339.411-0.003
			C454.716,364.695,480.001,303.65,480,239.997C480.176,176.31,454.863,115.201,409.704,70.293z M248,16.141
			c53.882,1.765,105.285,23.058,144.632,59.912L248,220.685V16.141z M240,463.997C116.288,463.98,16.014,363.678,16.031,239.966
			C16.048,119.392,111.503,20.464,232,16.141v223.856c0,0.184,0.064,0.344,0.08,0.528c-0.004,0.302,0.012,0.604,0.048,0.904
			c0,0.16,0.112,0.312,0.152,0.472c0.04,0.16,0,0.28,0.064,0.408c0.064,0.128,0.136,0.272,0.192,0.416
			c0.143,0.398,0.32,0.784,0.528,1.152c0.096,0.168,0.152,0.344,0.256,0.504c0.062,0.089,0.129,0.174,0.2,0.256
			c0.263,0.352,0.554,0.681,0.872,0.984c0.138,0.162,0.285,0.317,0.44,0.464l0.144,0.128c0.525,0.424,1.1,0.781,1.712,1.064
			l203.776,92.632C402.464,415.833,324.903,463.844,240,463.997z M447.104,325.349l-193.28-87.856L403.952,87.365
			C463.607,151.444,480.463,244.405,447.104,325.349L447.104,325.349z"/>
	</g>
</g>
<g>
	<g>
		<rect x="120" y="319.997" width="96" height="16"/>
	</g>
</g>
<g>
	<g>
		<rect x="120" y="351.997" width="96" height="16"/>
	</g>
</g>
<g>
	<g>
		<rect x="120" y="383.997" width="96" height="16"/>
	</g>
</g>
<g>
	<g>
		<rect x="360" y="191.997" width="56" height="16"/>
	</g>
</g>
<g>
	<g>
		<rect x="360" y="223.997" width="56" height="16"/>
	</g>
</g>
<g>
	<g>
		<rect x="272" y="71.997" width="56" height="16"/>
	</g>
</g>
<g>
	<g>
		<rect x="272" y="103.997" width="24" height="16"/>
	</g>
</g>
<g>
</g>
<g>
</g>
<g>
</g>
<g>
</g>
<g>
</g>
<g>
</g>
<g>
</g>
<g>
</g>
<g>
</g>
<g>
</g>
<g>
</g>
<g>
</g>
<g>
</g>
<g>
</g>
<g>
</g>
</svg>
